<mxfile host="app.diagrams.net" modified="2023-11-14T16:56:11.453Z" agent="Mozilla/5.0 (Windows NT 10.0; Win64; x64) AppleWebKit/537.36 (KHTML, like Gecko) Chrome/116.0.0.0 Safari/537.36 OPR/102.0.0.0" etag="i6UGAp4_I8aw3hnMdNXu" version="22.1.1" type="device" pages="2">
  <diagram name="1 oldal" id="vK_z3yx_Y0sfjF7aaBx6">
    <mxGraphModel dx="1393" dy="789" grid="1" gridSize="10" guides="1" tooltips="1" connect="1" arrows="1" fold="1" page="1" pageScale="1" pageWidth="2339" pageHeight="3300" math="0" shadow="0">
      <root>
        <mxCell id="0" />
        <mxCell id="1" parent="0" />
        <mxCell id="Cy_7onBGqacru4oTQHjf-54" value="" style="endArrow=none;html=1;rounded=0;exitX=0.5;exitY=1;exitDx=0;exitDy=0;entryX=0.5;entryY=0;entryDx=0;entryDy=0;" parent="1" source="Cy_7onBGqacru4oTQHjf-81" target="Cy_7onBGqacru4oTQHjf-88" edge="1">
          <mxGeometry width="50" height="50" relative="1" as="geometry">
            <mxPoint x="320.0000000000118" y="470" as="sourcePoint" />
            <mxPoint x="270" y="660" as="targetPoint" />
          </mxGeometry>
        </mxCell>
        <mxCell id="Cy_7onBGqacru4oTQHjf-57" value="" style="endArrow=none;html=1;rounded=0;entryX=1;entryY=1;entryDx=0;entryDy=0;exitX=0;exitY=0;exitDx=0;exitDy=0;" parent="1" source="Cy_7onBGqacru4oTQHjf-88" target="Cy_7onBGqacru4oTQHjf-82" edge="1">
          <mxGeometry width="50" height="50" relative="1" as="geometry">
            <mxPoint x="630" y="410" as="sourcePoint" />
            <mxPoint x="600" y="370" as="targetPoint" />
          </mxGeometry>
        </mxCell>
        <mxCell id="Cy_7onBGqacru4oTQHjf-58" value="" style="endArrow=none;html=1;rounded=0;entryX=0.5;entryY=1;entryDx=0;entryDy=0;exitX=0.25;exitY=0;exitDx=0;exitDy=0;" parent="1" source="Cy_7onBGqacru4oTQHjf-88" target="Cy_7onBGqacru4oTQHjf-86" edge="1">
          <mxGeometry width="50" height="50" relative="1" as="geometry">
            <mxPoint x="660" y="410" as="sourcePoint" />
            <mxPoint x="660" y="370" as="targetPoint" />
          </mxGeometry>
        </mxCell>
        <mxCell id="Cy_7onBGqacru4oTQHjf-59" value="" style="endArrow=none;html=1;rounded=0;entryX=0;entryY=1;entryDx=0;entryDy=0;exitX=0.75;exitY=0;exitDx=0;exitDy=0;" parent="1" source="Cy_7onBGqacru4oTQHjf-88" target="Cy_7onBGqacru4oTQHjf-85" edge="1">
          <mxGeometry width="50" height="50" relative="1" as="geometry">
            <mxPoint x="720" y="410" as="sourcePoint" />
            <mxPoint x="747.57359312884" y="368.28427124743916" as="targetPoint" />
          </mxGeometry>
        </mxCell>
        <mxCell id="Cy_7onBGqacru4oTQHjf-60" value="" style="endArrow=none;html=1;rounded=0;exitX=0;exitY=0.5;exitDx=0;exitDy=0;entryX=1;entryY=0;entryDx=0;entryDy=0;" parent="1" source="Cy_7onBGqacru4oTQHjf-84" target="Cy_7onBGqacru4oTQHjf-88" edge="1">
          <mxGeometry width="50" height="50" relative="1" as="geometry">
            <mxPoint x="780.0000000000236" y="430" as="sourcePoint" />
            <mxPoint x="750" y="440" as="targetPoint" />
          </mxGeometry>
        </mxCell>
        <mxCell id="Cy_7onBGqacru4oTQHjf-61" value="" style="endArrow=none;html=1;rounded=0;entryX=0;entryY=0.5;entryDx=0;entryDy=0;exitX=1;exitY=0.5;exitDx=0;exitDy=0;" parent="1" source="Cy_7onBGqacru4oTQHjf-88" target="Cy_7onBGqacru4oTQHjf-83" edge="1">
          <mxGeometry width="50" height="50" relative="1" as="geometry">
            <mxPoint x="750" y="470" as="sourcePoint" />
            <mxPoint x="787.5735931288068" y="495.71572875253855" as="targetPoint" />
          </mxGeometry>
        </mxCell>
        <mxCell id="Cy_7onBGqacru4oTQHjf-68" value="" style="endArrow=none;html=1;rounded=0;exitX=0.5;exitY=0;exitDx=0;exitDy=0;entryX=0.5;entryY=1;entryDx=0;entryDy=0;" parent="1" source="Cy_7onBGqacru4oTQHjf-87" target="Cy_7onBGqacru4oTQHjf-147" edge="1">
          <mxGeometry width="50" height="50" relative="1" as="geometry">
            <mxPoint x="435.0000000000118" y="820" as="sourcePoint" />
            <mxPoint x="630" y="810" as="targetPoint" />
          </mxGeometry>
        </mxCell>
        <mxCell id="Cy_7onBGqacru4oTQHjf-77" value="Id" style="ellipse;whiteSpace=wrap;html=1;align=center;fontStyle=4;" parent="1" vertex="1">
          <mxGeometry x="80" y="580" width="100" height="40" as="geometry" />
        </mxCell>
        <mxCell id="Cy_7onBGqacru4oTQHjf-78" value="ut" style="whiteSpace=wrap;html=1;align=center;" parent="1" vertex="1">
          <mxGeometry x="170" y="640" width="100" height="40" as="geometry" />
        </mxCell>
        <mxCell id="Cy_7onBGqacru4oTQHjf-79" value="" style="endArrow=none;html=1;rounded=0;exitX=1;exitY=1;exitDx=0;exitDy=0;entryX=0;entryY=0;entryDx=0;entryDy=0;" parent="1" source="Cy_7onBGqacru4oTQHjf-77" target="Cy_7onBGqacru4oTQHjf-78" edge="1">
          <mxGeometry relative="1" as="geometry">
            <mxPoint x="110" y="610" as="sourcePoint" />
            <mxPoint x="270" y="610" as="targetPoint" />
          </mxGeometry>
        </mxCell>
        <mxCell id="Cy_7onBGqacru4oTQHjf-81" value="info" style="ellipse;whiteSpace=wrap;html=1;align=center;" parent="1" vertex="1">
          <mxGeometry x="460" y="410" width="100" height="40" as="geometry" />
        </mxCell>
        <mxCell id="Cy_7onBGqacru4oTQHjf-82" value="lajstromjel" style="ellipse;whiteSpace=wrap;html=1;align=center;fontStyle=4;" parent="1" vertex="1">
          <mxGeometry x="520" y="370" width="100" height="40" as="geometry" />
        </mxCell>
        <mxCell id="Cy_7onBGqacru4oTQHjf-83" value="rakter" style="ellipse;whiteSpace=wrap;html=1;align=center;" parent="1" vertex="1">
          <mxGeometry x="760" y="430" width="100" height="40" as="geometry" />
        </mxCell>
        <mxCell id="Cy_7onBGqacru4oTQHjf-84" value="ulohely" style="ellipse;whiteSpace=wrap;html=1;align=center;" parent="1" vertex="1">
          <mxGeometry x="760" y="380" width="100" height="40" as="geometry" />
        </mxCell>
        <mxCell id="Cy_7onBGqacru4oTQHjf-85" value="modell" style="ellipse;whiteSpace=wrap;html=1;align=center;" parent="1" vertex="1">
          <mxGeometry x="700" y="340" width="100" height="40" as="geometry" />
        </mxCell>
        <mxCell id="Cy_7onBGqacru4oTQHjf-86" value="becenev" style="ellipse;whiteSpace=wrap;html=1;align=center;" parent="1" vertex="1">
          <mxGeometry x="600" y="330" width="100" height="40" as="geometry" />
        </mxCell>
        <mxCell id="Cy_7onBGqacru4oTQHjf-87" value="akcio" style="ellipse;whiteSpace=wrap;html=1;align=center;" parent="1" vertex="1">
          <mxGeometry x="480" y="730" width="100" height="40" as="geometry" />
        </mxCell>
        <mxCell id="Cy_7onBGqacru4oTQHjf-88" value="repulo" style="whiteSpace=wrap;html=1;align=center;" parent="1" vertex="1">
          <mxGeometry x="630" y="450" width="100" height="40" as="geometry" />
        </mxCell>
        <mxCell id="Cy_7onBGqacru4oTQHjf-89" value="repter" style="whiteSpace=wrap;html=1;align=center;" parent="1" vertex="1">
          <mxGeometry x="170" y="800" width="100" height="40" as="geometry" />
        </mxCell>
        <mxCell id="Cy_7onBGqacru4oTQHjf-91" value="nev" style="ellipse;whiteSpace=wrap;html=1;align=center;" parent="1" vertex="1">
          <mxGeometry x="170" y="880" width="100" height="40" as="geometry" />
        </mxCell>
        <mxCell id="Cy_7onBGqacru4oTQHjf-93" value="" style="endArrow=none;html=1;rounded=0;entryX=1;entryY=1;entryDx=0;entryDy=0;exitX=0;exitY=0;exitDx=0;exitDy=0;" parent="1" source="Cy_7onBGqacru4oTQHjf-104" target="Cy_7onBGqacru4oTQHjf-89" edge="1">
          <mxGeometry relative="1" as="geometry">
            <mxPoint x="340" y="880" as="sourcePoint" />
            <mxPoint x="100" y="780" as="targetPoint" />
          </mxGeometry>
        </mxCell>
        <mxCell id="Cy_7onBGqacru4oTQHjf-94" value="" style="endArrow=none;html=1;rounded=0;exitX=0.5;exitY=1;exitDx=0;exitDy=0;entryX=0.5;entryY=0;entryDx=0;entryDy=0;" parent="1" source="Cy_7onBGqacru4oTQHjf-89" target="Cy_7onBGqacru4oTQHjf-91" edge="1">
          <mxGeometry relative="1" as="geometry">
            <mxPoint x="-60" y="780" as="sourcePoint" />
            <mxPoint x="100" y="780" as="targetPoint" />
          </mxGeometry>
        </mxCell>
        <mxCell id="Cy_7onBGqacru4oTQHjf-95" value="felhasznalo" style="whiteSpace=wrap;html=1;align=center;" parent="1" vertex="1">
          <mxGeometry x="900" y="600" width="100" height="40" as="geometry" />
        </mxCell>
        <mxCell id="Cy_7onBGqacru4oTQHjf-96" value="felhasznalo nev" style="ellipse;whiteSpace=wrap;html=1;align=center;fontStyle=4;" parent="1" vertex="1">
          <mxGeometry x="790" y="540" width="100" height="40" as="geometry" />
        </mxCell>
        <mxCell id="Cy_7onBGqacru4oTQHjf-97" value="jelszo" style="ellipse;whiteSpace=wrap;html=1;align=center;" parent="1" vertex="1">
          <mxGeometry x="850" y="500" width="100" height="40" as="geometry" />
        </mxCell>
        <mxCell id="Cy_7onBGqacru4oTQHjf-98" value="teljes nev" style="ellipse;whiteSpace=wrap;html=1;align=center;" parent="1" vertex="1">
          <mxGeometry x="960" y="500" width="100" height="40" as="geometry" />
        </mxCell>
        <mxCell id="Cy_7onBGqacru4oTQHjf-99" value="email" style="ellipse;whiteSpace=wrap;html=1;align=center;" parent="1" vertex="1">
          <mxGeometry x="1040" y="530" width="100" height="40" as="geometry" />
        </mxCell>
        <mxCell id="Cy_7onBGqacru4oTQHjf-100" value="telefonszam" style="ellipse;whiteSpace=wrap;html=1;align=center;" parent="1" vertex="1">
          <mxGeometry x="1040" y="580" width="100" height="40" as="geometry" />
        </mxCell>
        <mxCell id="Cy_7onBGqacru4oTQHjf-101" value="bankkartya szam" style="ellipse;whiteSpace=wrap;html=1;align=center;" parent="1" vertex="1">
          <mxGeometry x="1040" y="630" width="100" height="40" as="geometry" />
        </mxCell>
        <mxCell id="Cy_7onBGqacru4oTQHjf-104" value="varos" style="ellipse;whiteSpace=wrap;html=1;align=center;fontStyle=4;" parent="1" vertex="1">
          <mxGeometry x="260" y="850" width="100" height="40" as="geometry" />
        </mxCell>
        <mxCell id="Cy_7onBGqacru4oTQHjf-107" value="" style="endArrow=none;html=1;rounded=0;entryX=0;entryY=0;entryDx=0;entryDy=0;exitX=1;exitY=0.75;exitDx=0;exitDy=0;" parent="1" source="Cy_7onBGqacru4oTQHjf-95" target="Cy_7onBGqacru4oTQHjf-101" edge="1">
          <mxGeometry relative="1" as="geometry">
            <mxPoint x="600" y="720" as="sourcePoint" />
            <mxPoint x="1070" y="680" as="targetPoint" />
          </mxGeometry>
        </mxCell>
        <mxCell id="Cy_7onBGqacru4oTQHjf-110" value="" style="endArrow=none;html=1;rounded=0;exitX=0.5;exitY=0;exitDx=0;exitDy=0;entryX=1;entryY=1;entryDx=0;entryDy=0;" parent="1" source="Me0E7q63XBN8IqLfa_M3-3" target="Cy_7onBGqacru4oTQHjf-95" edge="1">
          <mxGeometry relative="1" as="geometry">
            <mxPoint x="1000" y="710" as="sourcePoint" />
            <mxPoint x="1000" y="810" as="targetPoint" />
          </mxGeometry>
        </mxCell>
        <mxCell id="Cy_7onBGqacru4oTQHjf-111" value="" style="endArrow=none;html=1;rounded=0;entryX=0.5;entryY=1;entryDx=0;entryDy=0;exitX=0.75;exitY=0;exitDx=0;exitDy=0;" parent="1" source="Cy_7onBGqacru4oTQHjf-95" target="Cy_7onBGqacru4oTQHjf-98" edge="1">
          <mxGeometry relative="1" as="geometry">
            <mxPoint x="600" y="720" as="sourcePoint" />
            <mxPoint x="760" y="720" as="targetPoint" />
          </mxGeometry>
        </mxCell>
        <mxCell id="Cy_7onBGqacru4oTQHjf-112" value="" style="endArrow=none;html=1;rounded=0;entryX=0;entryY=1;entryDx=0;entryDy=0;exitX=1;exitY=0;exitDx=0;exitDy=0;" parent="1" source="Cy_7onBGqacru4oTQHjf-95" target="Cy_7onBGqacru4oTQHjf-99" edge="1">
          <mxGeometry relative="1" as="geometry">
            <mxPoint x="600" y="720" as="sourcePoint" />
            <mxPoint x="760" y="720" as="targetPoint" />
          </mxGeometry>
        </mxCell>
        <mxCell id="Cy_7onBGqacru4oTQHjf-113" value="" style="endArrow=none;html=1;rounded=0;entryX=0;entryY=0.5;entryDx=0;entryDy=0;exitX=1;exitY=0.5;exitDx=0;exitDy=0;" parent="1" source="Cy_7onBGqacru4oTQHjf-95" target="Cy_7onBGqacru4oTQHjf-100" edge="1">
          <mxGeometry relative="1" as="geometry">
            <mxPoint x="600" y="720" as="sourcePoint" />
            <mxPoint x="760" y="720" as="targetPoint" />
          </mxGeometry>
        </mxCell>
        <mxCell id="Cy_7onBGqacru4oTQHjf-114" value="" style="endArrow=none;html=1;rounded=0;entryX=1;entryY=1;entryDx=0;entryDy=0;exitX=0;exitY=0;exitDx=0;exitDy=0;" parent="1" source="Cy_7onBGqacru4oTQHjf-95" target="Cy_7onBGqacru4oTQHjf-96" edge="1">
          <mxGeometry relative="1" as="geometry">
            <mxPoint x="600" y="720" as="sourcePoint" />
            <mxPoint x="760" y="720" as="targetPoint" />
          </mxGeometry>
        </mxCell>
        <mxCell id="Cy_7onBGqacru4oTQHjf-115" value="" style="endArrow=none;html=1;rounded=0;entryX=1;entryY=1;entryDx=0;entryDy=0;exitX=0.5;exitY=0;exitDx=0;exitDy=0;" parent="1" source="Cy_7onBGqacru4oTQHjf-95" target="Cy_7onBGqacru4oTQHjf-97" edge="1">
          <mxGeometry relative="1" as="geometry">
            <mxPoint x="600" y="720" as="sourcePoint" />
            <mxPoint x="760" y="720" as="targetPoint" />
          </mxGeometry>
        </mxCell>
        <mxCell id="Cy_7onBGqacru4oTQHjf-121" value="jegy" style="shape=rhombus;perimeter=rhombusPerimeter;whiteSpace=wrap;html=1;align=center;" parent="1" vertex="1">
          <mxGeometry x="620" y="590" width="120" height="60" as="geometry" />
        </mxCell>
        <mxCell id="Cy_7onBGqacru4oTQHjf-125" value="plusz csomag" style="ellipse;whiteSpace=wrap;html=1;align=center;" parent="1" vertex="1">
          <mxGeometry x="600" y="690" width="100" height="40" as="geometry" />
        </mxCell>
        <mxCell id="Cy_7onBGqacru4oTQHjf-126" value="" style="endArrow=none;html=1;rounded=0;exitX=0;exitY=1;exitDx=0;exitDy=0;entryX=0.5;entryY=0;entryDx=0;entryDy=0;" parent="1" source="Cy_7onBGqacru4oTQHjf-121" target="Cy_7onBGqacru4oTQHjf-125" edge="1">
          <mxGeometry relative="1" as="geometry">
            <mxPoint x="580" y="740" as="sourcePoint" />
            <mxPoint x="740" y="740" as="targetPoint" />
          </mxGeometry>
        </mxCell>
        <mxCell id="Cy_7onBGqacru4oTQHjf-131" value="idopont" style="ellipse;whiteSpace=wrap;html=1;align=center;" parent="1" vertex="1">
          <mxGeometry x="480" y="530" width="100" height="40" as="geometry" />
        </mxCell>
        <mxCell id="Cy_7onBGqacru4oTQHjf-133" value="" style="endArrow=none;html=1;rounded=0;exitX=0.5;exitY=1;exitDx=0;exitDy=0;entryX=0.5;entryY=0;entryDx=0;entryDy=0;" parent="1" source="Cy_7onBGqacru4oTQHjf-131" target="Cy_7onBGqacru4oTQHjf-147" edge="1">
          <mxGeometry relative="1" as="geometry">
            <mxPoint x="210" y="770" as="sourcePoint" />
            <mxPoint x="710" y="800" as="targetPoint" />
          </mxGeometry>
        </mxCell>
        <mxCell id="Cy_7onBGqacru4oTQHjf-136" value="ar" style="ellipse;whiteSpace=wrap;html=1;align=center;" parent="1" vertex="1">
          <mxGeometry x="260" y="580" width="100" height="40" as="geometry" />
        </mxCell>
        <mxCell id="Cy_7onBGqacru4oTQHjf-138" value="hossz" style="ellipse;whiteSpace=wrap;html=1;align=center;" parent="1" vertex="1">
          <mxGeometry x="170" y="550" width="100" height="40" as="geometry" />
        </mxCell>
        <mxCell id="Cy_7onBGqacru4oTQHjf-139" value="" style="endArrow=none;html=1;rounded=0;entryX=0.5;entryY=0;entryDx=0;entryDy=0;exitX=0.5;exitY=1;exitDx=0;exitDy=0;" parent="1" source="Cy_7onBGqacru4oTQHjf-138" target="Cy_7onBGqacru4oTQHjf-78" edge="1">
          <mxGeometry relative="1" as="geometry">
            <mxPoint x="60" y="770" as="sourcePoint" />
            <mxPoint x="220" y="770" as="targetPoint" />
          </mxGeometry>
        </mxCell>
        <mxCell id="Cy_7onBGqacru4oTQHjf-142" value="" style="endArrow=none;html=1;rounded=0;entryX=0;entryY=1;entryDx=0;entryDy=0;" parent="1" target="Cy_7onBGqacru4oTQHjf-136" edge="1">
          <mxGeometry relative="1" as="geometry">
            <mxPoint x="270" y="640" as="sourcePoint" />
            <mxPoint x="220" y="770" as="targetPoint" />
          </mxGeometry>
        </mxCell>
        <mxCell id="Cy_7onBGqacru4oTQHjf-145" value="hely" style="ellipse;whiteSpace=wrap;html=1;align=center;" parent="1" vertex="1">
          <mxGeometry x="720" y="650" width="100" height="40" as="geometry" />
        </mxCell>
        <mxCell id="Cy_7onBGqacru4oTQHjf-146" value="" style="endArrow=none;html=1;rounded=0;entryX=1;entryY=1;entryDx=0;entryDy=0;exitX=0;exitY=0;exitDx=0;exitDy=0;" parent="1" source="Cy_7onBGqacru4oTQHjf-145" target="Cy_7onBGqacru4oTQHjf-121" edge="1">
          <mxGeometry relative="1" as="geometry">
            <mxPoint x="260" y="740" as="sourcePoint" />
            <mxPoint x="420" y="740" as="targetPoint" />
          </mxGeometry>
        </mxCell>
        <mxCell id="Cy_7onBGqacru4oTQHjf-147" value="jarat" style="whiteSpace=wrap;html=1;align=center;" parent="1" vertex="1">
          <mxGeometry x="480" y="640" width="100" height="40" as="geometry" />
        </mxCell>
        <mxCell id="Cy_7onBGqacru4oTQHjf-189" style="edgeStyle=orthogonalEdgeStyle;rounded=0;orthogonalLoop=1;jettySize=auto;html=1;exitX=0.5;exitY=1;exitDx=0;exitDy=0;entryX=0.5;entryY=0;entryDx=0;entryDy=0;" parent="1" source="Cy_7onBGqacru4oTQHjf-148" target="Cy_7onBGqacru4oTQHjf-89" edge="1">
          <mxGeometry relative="1" as="geometry" />
        </mxCell>
        <mxCell id="Cy_7onBGqacru4oTQHjf-148" value="megy" style="shape=rhombus;perimeter=rhombusPerimeter;whiteSpace=wrap;html=1;align=center;" parent="1" vertex="1">
          <mxGeometry x="160" y="710" width="120" height="60" as="geometry" />
        </mxCell>
        <mxCell id="Cy_7onBGqacru4oTQHjf-180" style="edgeStyle=orthogonalEdgeStyle;rounded=0;orthogonalLoop=1;jettySize=auto;html=1;exitX=0;exitY=0.5;exitDx=0;exitDy=0;entryX=1;entryY=0.5;entryDx=0;entryDy=0;" parent="1" source="Cy_7onBGqacru4oTQHjf-155" target="Cy_7onBGqacru4oTQHjf-78" edge="1">
          <mxGeometry relative="1" as="geometry" />
        </mxCell>
        <mxCell id="Cy_7onBGqacru4oTQHjf-155" value="haladott" style="shape=rhombus;perimeter=rhombusPerimeter;whiteSpace=wrap;html=1;align=center;" parent="1" vertex="1">
          <mxGeometry x="320" y="630" width="120" height="60" as="geometry" />
        </mxCell>
        <mxCell id="Cy_7onBGqacru4oTQHjf-157" value="gepe" style="shape=rhombus;perimeter=rhombusPerimeter;whiteSpace=wrap;html=1;align=center;" parent="1" vertex="1">
          <mxGeometry x="590" y="520" width="120" height="60" as="geometry" />
        </mxCell>
        <mxCell id="Cy_7onBGqacru4oTQHjf-159" style="edgeStyle=orthogonalEdgeStyle;rounded=0;orthogonalLoop=1;jettySize=auto;html=1;exitX=0.5;exitY=1;exitDx=0;exitDy=0;" parent="1" source="Cy_7onBGqacru4oTQHjf-101" target="Cy_7onBGqacru4oTQHjf-101" edge="1">
          <mxGeometry relative="1" as="geometry" />
        </mxCell>
        <mxCell id="Cy_7onBGqacru4oTQHjf-160" value="" style="endArrow=none;html=1;rounded=0;entryX=0;entryY=0.5;entryDx=0;entryDy=0;" parent="1" target="Cy_7onBGqacru4oTQHjf-95" edge="1">
          <mxGeometry relative="1" as="geometry">
            <mxPoint x="740" y="620" as="sourcePoint" />
            <mxPoint x="630" y="630" as="targetPoint" />
          </mxGeometry>
        </mxCell>
        <mxCell id="Cy_7onBGqacru4oTQHjf-161" value="" style="resizable=0;html=1;whiteSpace=wrap;align=left;verticalAlign=bottom;" parent="Cy_7onBGqacru4oTQHjf-160" connectable="0" vertex="1">
          <mxGeometry x="-1" relative="1" as="geometry" />
        </mxCell>
        <mxCell id="Cy_7onBGqacru4oTQHjf-162" value="N" style="resizable=0;html=1;whiteSpace=wrap;align=right;verticalAlign=bottom;" parent="Cy_7onBGqacru4oTQHjf-160" connectable="0" vertex="1">
          <mxGeometry x="1" relative="1" as="geometry" />
        </mxCell>
        <mxCell id="Cy_7onBGqacru4oTQHjf-163" value="" style="endArrow=none;html=1;rounded=0;exitX=1;exitY=0.5;exitDx=0;exitDy=0;entryX=0;entryY=0.5;entryDx=0;entryDy=0;" parent="1" source="Cy_7onBGqacru4oTQHjf-147" target="Cy_7onBGqacru4oTQHjf-121" edge="1">
          <mxGeometry relative="1" as="geometry">
            <mxPoint x="440" y="630" as="sourcePoint" />
            <mxPoint x="590.0000000000002" y="619.9999999999998" as="targetPoint" />
            <Array as="points">
              <mxPoint x="620" y="660" />
            </Array>
          </mxGeometry>
        </mxCell>
        <mxCell id="Cy_7onBGqacru4oTQHjf-164" value="M" style="resizable=0;html=1;whiteSpace=wrap;align=left;verticalAlign=bottom;" parent="Cy_7onBGqacru4oTQHjf-163" connectable="0" vertex="1">
          <mxGeometry x="-1" relative="1" as="geometry" />
        </mxCell>
        <mxCell id="Cy_7onBGqacru4oTQHjf-165" value="" style="resizable=0;html=1;whiteSpace=wrap;align=right;verticalAlign=bottom;" parent="Cy_7onBGqacru4oTQHjf-163" connectable="0" vertex="1">
          <mxGeometry x="1" relative="1" as="geometry" />
        </mxCell>
        <mxCell id="Cy_7onBGqacru4oTQHjf-178" value="" style="endArrow=none;html=1;rounded=0;exitX=0.5;exitY=1;exitDx=0;exitDy=0;entryX=1;entryY=0;entryDx=0;entryDy=0;" parent="1" source="Cy_7onBGqacru4oTQHjf-157" target="Cy_7onBGqacru4oTQHjf-147" edge="1">
          <mxGeometry relative="1" as="geometry">
            <mxPoint x="540" y="610" as="sourcePoint" />
            <mxPoint x="700" y="610" as="targetPoint" />
          </mxGeometry>
        </mxCell>
        <mxCell id="Cy_7onBGqacru4oTQHjf-179" value="N" style="resizable=0;html=1;whiteSpace=wrap;align=right;verticalAlign=bottom;" parent="Cy_7onBGqacru4oTQHjf-178" connectable="0" vertex="1">
          <mxGeometry x="1" relative="1" as="geometry" />
        </mxCell>
        <mxCell id="Cy_7onBGqacru4oTQHjf-181" value="" style="endArrow=none;html=1;rounded=0;entryX=0;entryY=0.5;entryDx=0;entryDy=0;exitX=1;exitY=0.5;exitDx=0;exitDy=0;" parent="1" source="Cy_7onBGqacru4oTQHjf-155" target="Cy_7onBGqacru4oTQHjf-147" edge="1">
          <mxGeometry relative="1" as="geometry">
            <mxPoint x="280" y="680" as="sourcePoint" />
            <mxPoint x="440" y="680" as="targetPoint" />
          </mxGeometry>
        </mxCell>
        <mxCell id="Cy_7onBGqacru4oTQHjf-182" value="N" style="resizable=0;html=1;whiteSpace=wrap;align=right;verticalAlign=bottom;" parent="Cy_7onBGqacru4oTQHjf-181" connectable="0" vertex="1">
          <mxGeometry x="1" relative="1" as="geometry" />
        </mxCell>
        <mxCell id="Cy_7onBGqacru4oTQHjf-187" value="" style="endArrow=none;html=1;rounded=0;entryX=0.5;entryY=1;entryDx=0;entryDy=0;exitX=0.5;exitY=0;exitDx=0;exitDy=0;" parent="1" source="Cy_7onBGqacru4oTQHjf-148" target="Cy_7onBGqacru4oTQHjf-78" edge="1">
          <mxGeometry relative="1" as="geometry">
            <mxPoint x="280" y="740" as="sourcePoint" />
            <mxPoint x="440" y="740" as="targetPoint" />
          </mxGeometry>
        </mxCell>
        <mxCell id="Cy_7onBGqacru4oTQHjf-188" value="N" style="resizable=0;html=1;whiteSpace=wrap;align=right;verticalAlign=bottom;" parent="Cy_7onBGqacru4oTQHjf-187" connectable="0" vertex="1">
          <mxGeometry x="1" relative="1" as="geometry">
            <mxPoint x="5" y="20" as="offset" />
          </mxGeometry>
        </mxCell>
        <mxCell id="8geqeAwZKjz7qRbLFmvx-8" value="id" style="ellipse;whiteSpace=wrap;html=1;align=center;fontStyle=4;" parent="1" vertex="1">
          <mxGeometry x="400" y="570" width="100" height="40" as="geometry" />
        </mxCell>
        <mxCell id="8geqeAwZKjz7qRbLFmvx-9" value="" style="endArrow=none;html=1;rounded=0;exitX=0.5;exitY=1;exitDx=0;exitDy=0;entryX=0;entryY=0;entryDx=0;entryDy=0;" parent="1" source="8geqeAwZKjz7qRbLFmvx-8" target="Cy_7onBGqacru4oTQHjf-147" edge="1">
          <mxGeometry relative="1" as="geometry">
            <mxPoint x="540" y="620" as="sourcePoint" />
            <mxPoint x="700" y="620" as="targetPoint" />
          </mxGeometry>
        </mxCell>
        <mxCell id="8geqeAwZKjz7qRbLFmvx-10" style="edgeStyle=orthogonalEdgeStyle;rounded=0;orthogonalLoop=1;jettySize=auto;html=1;exitX=0.5;exitY=0;exitDx=0;exitDy=0;entryX=0.5;entryY=1;entryDx=0;entryDy=0;" parent="1" source="Cy_7onBGqacru4oTQHjf-157" target="Cy_7onBGqacru4oTQHjf-88" edge="1">
          <mxGeometry relative="1" as="geometry">
            <mxPoint x="1010" y="690" as="sourcePoint" />
            <mxPoint x="1010" y="650" as="targetPoint" />
          </mxGeometry>
        </mxCell>
        <mxCell id="8geqeAwZKjz7qRbLFmvx-11" value="repult utak szama" style="ellipse;whiteSpace=wrap;html=1;align=center;" parent="1" vertex="1">
          <mxGeometry x="470" y="470" width="100" height="40" as="geometry" />
        </mxCell>
        <mxCell id="8geqeAwZKjz7qRbLFmvx-13" value="" style="endArrow=none;html=1;rounded=0;exitX=1;exitY=0.5;exitDx=0;exitDy=0;entryX=0;entryY=0.5;entryDx=0;entryDy=0;" parent="1" source="8geqeAwZKjz7qRbLFmvx-11" target="Cy_7onBGqacru4oTQHjf-88" edge="1">
          <mxGeometry relative="1" as="geometry">
            <mxPoint x="540" y="620" as="sourcePoint" />
            <mxPoint x="700" y="620" as="targetPoint" />
          </mxGeometry>
        </mxCell>
        <mxCell id="Me0E7q63XBN8IqLfa_M3-1" value="megy" style="ellipse;whiteSpace=wrap;html=1;align=center;" parent="1" vertex="1">
          <mxGeometry x="330" y="720" width="100" height="40" as="geometry" />
        </mxCell>
        <mxCell id="Me0E7q63XBN8IqLfa_M3-2" value="" style="endArrow=none;html=1;rounded=0;exitX=1;exitY=0.5;exitDx=0;exitDy=0;entryX=0;entryY=0.5;entryDx=0;entryDy=0;" parent="1" source="Cy_7onBGqacru4oTQHjf-148" target="Me0E7q63XBN8IqLfa_M3-1" edge="1">
          <mxGeometry relative="1" as="geometry">
            <mxPoint x="320" y="820" as="sourcePoint" />
            <mxPoint x="480" y="820" as="targetPoint" />
          </mxGeometry>
        </mxCell>
        <mxCell id="Me0E7q63XBN8IqLfa_M3-3" value="aranykartya" style="ellipse;whiteSpace=wrap;html=1;align=center;" parent="1" vertex="1">
          <mxGeometry x="990" y="690" width="100" height="40" as="geometry" />
        </mxCell>
        <mxCell id="Me0E7q63XBN8IqLfa_M3-4" value="admin" style="ellipse;whiteSpace=wrap;html=1;align=center;" parent="1" vertex="1">
          <mxGeometry x="860" y="690" width="100" height="40" as="geometry" />
        </mxCell>
        <mxCell id="Me0E7q63XBN8IqLfa_M3-5" value="" style="endArrow=none;html=1;rounded=0;exitX=0.25;exitY=1;exitDx=0;exitDy=0;entryX=0.5;entryY=0;entryDx=0;entryDy=0;" parent="1" source="Cy_7onBGqacru4oTQHjf-95" target="Me0E7q63XBN8IqLfa_M3-4" edge="1">
          <mxGeometry relative="1" as="geometry">
            <mxPoint x="770" y="810" as="sourcePoint" />
            <mxPoint x="930" y="810" as="targetPoint" />
          </mxGeometry>
        </mxCell>
        <mxCell id="Me0E7q63XBN8IqLfa_M3-6" value="nev" style="ellipse;whiteSpace=wrap;html=1;align=center;" parent="1" vertex="1">
          <mxGeometry x="720" y="700" width="100" height="40" as="geometry" />
        </mxCell>
        <mxCell id="Me0E7q63XBN8IqLfa_M3-7" value="" style="endArrow=none;html=1;rounded=0;exitX=0.5;exitY=1;exitDx=0;exitDy=0;entryX=0;entryY=0;entryDx=0;entryDy=0;" parent="1" source="Cy_7onBGqacru4oTQHjf-121" target="Me0E7q63XBN8IqLfa_M3-6" edge="1">
          <mxGeometry relative="1" as="geometry">
            <mxPoint x="620" y="800" as="sourcePoint" />
            <mxPoint x="780" y="800" as="targetPoint" />
          </mxGeometry>
        </mxCell>
      </root>
    </mxGraphModel>
  </diagram>
  <diagram id="LWgKnVJLEdd_JIYCejLM" name="Page-2">
    <mxGraphModel dx="992" dy="579" grid="1" gridSize="10" guides="1" tooltips="1" connect="1" arrows="1" fold="1" page="1" pageScale="1" pageWidth="850" pageHeight="1100" math="0" shadow="0">
      <root>
        <mxCell id="0" />
        <mxCell id="1" parent="0" />
        <mxCell id="lgrKN7xAIjQ8AgRbihTf-22" value="Felhasznalo" style="swimlane;fontStyle=0;childLayout=stackLayout;horizontal=1;startSize=26;horizontalStack=0;resizeParent=1;resizeParentMax=0;resizeLast=0;collapsible=1;marginBottom=0;align=center;fontSize=14;" parent="1" vertex="1">
          <mxGeometry x="660" y="20" width="160" height="180" as="geometry" />
        </mxCell>
        <mxCell id="lgrKN7xAIjQ8AgRbihTf-23" value="&lt;u&gt;felhasznalonev&lt;/u&gt;" style="text;strokeColor=none;fillColor=none;spacingLeft=4;spacingRight=4;overflow=hidden;rotatable=0;points=[[0,0.5],[1,0.5]];portConstraint=eastwest;fontSize=12;whiteSpace=wrap;html=1;" parent="lgrKN7xAIjQ8AgRbihTf-22" vertex="1">
          <mxGeometry y="26" width="160" height="30" as="geometry" />
        </mxCell>
        <mxCell id="lgrKN7xAIjQ8AgRbihTf-24" value="aranykartya&lt;br&gt;admin" style="text;strokeColor=none;fillColor=none;spacingLeft=4;spacingRight=4;overflow=hidden;rotatable=0;points=[[0,0.5],[1,0.5]];portConstraint=eastwest;fontSize=12;whiteSpace=wrap;html=1;" parent="lgrKN7xAIjQ8AgRbihTf-22" vertex="1">
          <mxGeometry y="56" width="160" height="30" as="geometry" />
        </mxCell>
        <mxCell id="lgrKN7xAIjQ8AgRbihTf-25" value="jelszo&lt;br&gt;teljesnev&lt;br&gt;&lt;div&gt;email&lt;/div&gt;&lt;div&gt;telefonszam&lt;br&gt;bankkartyaszam&lt;br&gt;&lt;/div&gt;" style="text;strokeColor=none;fillColor=none;spacingLeft=4;spacingRight=4;overflow=hidden;rotatable=0;points=[[0,0.5],[1,0.5]];portConstraint=eastwest;fontSize=12;whiteSpace=wrap;html=1;" parent="lgrKN7xAIjQ8AgRbihTf-22" vertex="1">
          <mxGeometry y="86" width="160" height="94" as="geometry" />
        </mxCell>
        <mxCell id="lgrKN7xAIjQ8AgRbihTf-32" value="Ut" style="swimlane;fontStyle=0;childLayout=stackLayout;horizontal=1;startSize=26;horizontalStack=0;resizeParent=1;resizeParentMax=0;resizeLast=0;collapsible=1;marginBottom=0;align=center;fontSize=14;" parent="1" vertex="1">
          <mxGeometry x="430" y="190" width="160" height="150" as="geometry" />
        </mxCell>
        <mxCell id="lgrKN7xAIjQ8AgRbihTf-33" value="&lt;u&gt;id&lt;/u&gt;" style="text;strokeColor=none;fillColor=none;spacingLeft=4;spacingRight=4;overflow=hidden;rotatable=0;points=[[0,0.5],[1,0.5]];portConstraint=eastwest;fontSize=12;whiteSpace=wrap;html=1;" parent="lgrKN7xAIjQ8AgRbihTf-32" vertex="1">
          <mxGeometry y="26" width="160" height="30" as="geometry" />
        </mxCell>
        <mxCell id="lgrKN7xAIjQ8AgRbihTf-34" value="Repter.varos1" style="text;strokeColor=none;fillColor=none;spacingLeft=4;spacingRight=4;overflow=hidden;rotatable=0;points=[[0,0.5],[1,0.5]];portConstraint=eastwest;fontSize=12;whiteSpace=wrap;html=1;" parent="lgrKN7xAIjQ8AgRbihTf-32" vertex="1">
          <mxGeometry y="56" width="160" height="36" as="geometry" />
        </mxCell>
        <mxCell id="lgrKN7xAIjQ8AgRbihTf-35" value="ar&lt;br&gt;hossz&lt;br&gt;megy" style="text;strokeColor=none;fillColor=none;spacingLeft=4;spacingRight=4;overflow=hidden;rotatable=0;points=[[0,0.5],[1,0.5]];portConstraint=eastwest;fontSize=12;whiteSpace=wrap;html=1;" parent="lgrKN7xAIjQ8AgRbihTf-32" vertex="1">
          <mxGeometry y="92" width="160" height="58" as="geometry" />
        </mxCell>
        <mxCell id="lgrKN7xAIjQ8AgRbihTf-36" value="Repter" style="swimlane;fontStyle=0;childLayout=stackLayout;horizontal=1;startSize=26;horizontalStack=0;resizeParent=1;resizeParentMax=0;resizeLast=0;collapsible=1;marginBottom=0;align=center;fontSize=14;" parent="1" vertex="1">
          <mxGeometry x="660" y="222" width="160" height="86" as="geometry" />
        </mxCell>
        <mxCell id="lgrKN7xAIjQ8AgRbihTf-37" value="&lt;u&gt;varos&lt;/u&gt;" style="text;strokeColor=none;fillColor=none;spacingLeft=4;spacingRight=4;overflow=hidden;rotatable=0;points=[[0,0.5],[1,0.5]];portConstraint=eastwest;fontSize=12;whiteSpace=wrap;html=1;" parent="lgrKN7xAIjQ8AgRbihTf-36" vertex="1">
          <mxGeometry y="26" width="160" height="30" as="geometry" />
        </mxCell>
        <mxCell id="lgrKN7xAIjQ8AgRbihTf-38" value="nev" style="text;strokeColor=none;fillColor=none;spacingLeft=4;spacingRight=4;overflow=hidden;rotatable=0;points=[[0,0.5],[1,0.5]];portConstraint=eastwest;fontSize=12;whiteSpace=wrap;html=1;" parent="lgrKN7xAIjQ8AgRbihTf-36" vertex="1">
          <mxGeometry y="56" width="160" height="30" as="geometry" />
        </mxCell>
        <mxCell id="lgrKN7xAIjQ8AgRbihTf-40" value="Jarat" style="swimlane;fontStyle=0;childLayout=stackLayout;horizontal=1;startSize=26;horizontalStack=0;resizeParent=1;resizeParentMax=0;resizeLast=0;collapsible=1;marginBottom=0;align=center;fontSize=14;" parent="1" vertex="1">
          <mxGeometry x="200" y="20" width="160" height="150" as="geometry" />
        </mxCell>
        <mxCell id="lgrKN7xAIjQ8AgRbihTf-41" value="&lt;u&gt;id&lt;/u&gt;" style="text;strokeColor=none;fillColor=none;spacingLeft=4;spacingRight=4;overflow=hidden;rotatable=0;points=[[0,0.5],[1,0.5]];portConstraint=eastwest;fontSize=12;whiteSpace=wrap;html=1;" parent="lgrKN7xAIjQ8AgRbihTf-40" vertex="1">
          <mxGeometry y="26" width="160" height="30" as="geometry" />
        </mxCell>
        <mxCell id="lgrKN7xAIjQ8AgRbihTf-42" value="Ut.id&lt;br&gt;Repulo.lajstromjel" style="text;strokeColor=none;fillColor=none;spacingLeft=4;spacingRight=4;overflow=hidden;rotatable=0;points=[[0,0.5],[1,0.5]];portConstraint=eastwest;fontSize=12;whiteSpace=wrap;html=1;" parent="lgrKN7xAIjQ8AgRbihTf-40" vertex="1">
          <mxGeometry y="56" width="160" height="54" as="geometry" />
        </mxCell>
        <mxCell id="lgrKN7xAIjQ8AgRbihTf-43" value="idopont&lt;br&gt;akcio" style="text;strokeColor=none;fillColor=none;spacingLeft=4;spacingRight=4;overflow=hidden;rotatable=0;points=[[0,0.5],[1,0.5]];portConstraint=eastwest;fontSize=12;whiteSpace=wrap;html=1;" parent="lgrKN7xAIjQ8AgRbihTf-40" vertex="1">
          <mxGeometry y="110" width="160" height="40" as="geometry" />
        </mxCell>
        <mxCell id="lgrKN7xAIjQ8AgRbihTf-57" value="Repulo" style="swimlane;fontStyle=0;childLayout=stackLayout;horizontal=1;startSize=26;horizontalStack=0;resizeParent=1;resizeParentMax=0;resizeLast=0;collapsible=1;marginBottom=0;align=center;fontSize=14;" parent="1" vertex="1">
          <mxGeometry x="10" y="20" width="160" height="150" as="geometry" />
        </mxCell>
        <mxCell id="lgrKN7xAIjQ8AgRbihTf-58" value="&lt;u&gt;lajstromjel&lt;/u&gt;" style="text;strokeColor=none;fillColor=none;spacingLeft=4;spacingRight=4;overflow=hidden;rotatable=0;points=[[0,0.5],[1,0.5]];portConstraint=eastwest;fontSize=12;whiteSpace=wrap;html=1;" parent="lgrKN7xAIjQ8AgRbihTf-57" vertex="1">
          <mxGeometry y="26" width="160" height="30" as="geometry" />
        </mxCell>
        <mxCell id="lgrKN7xAIjQ8AgRbihTf-59" value="becenev&lt;br&gt;modell&lt;br&gt;ulohely&lt;br&gt;rakter&lt;br&gt;info&lt;br&gt;reput utak szama" style="text;strokeColor=none;fillColor=none;spacingLeft=4;spacingRight=4;overflow=hidden;rotatable=0;points=[[0,0.5],[1,0.5]];portConstraint=eastwest;fontSize=12;whiteSpace=wrap;html=1;" parent="lgrKN7xAIjQ8AgRbihTf-57" vertex="1">
          <mxGeometry y="56" width="160" height="94" as="geometry" />
        </mxCell>
        <mxCell id="lgrKN7xAIjQ8AgRbihTf-65" value="Jegy" style="swimlane;fontStyle=0;childLayout=stackLayout;horizontal=1;startSize=26;horizontalStack=0;resizeParent=1;resizeParentMax=0;resizeLast=0;collapsible=1;marginBottom=0;align=center;fontSize=14;" parent="1" vertex="1">
          <mxGeometry x="430" y="20" width="160" height="140" as="geometry" />
        </mxCell>
        <mxCell id="lgrKN7xAIjQ8AgRbihTf-66" value="&lt;u&gt;Jarat.id&lt;/u&gt;" style="text;strokeColor=none;fillColor=none;spacingLeft=4;spacingRight=4;overflow=hidden;rotatable=0;points=[[0,0.5],[1,0.5]];portConstraint=eastwest;fontSize=12;whiteSpace=wrap;html=1;" parent="lgrKN7xAIjQ8AgRbihTf-65" vertex="1">
          <mxGeometry y="26" width="160" height="30" as="geometry" />
        </mxCell>
        <mxCell id="lgrKN7xAIjQ8AgRbihTf-67" value="&lt;u&gt;hely&lt;/u&gt;" style="text;strokeColor=none;fillColor=none;spacingLeft=4;spacingRight=4;overflow=hidden;rotatable=0;points=[[0,0.5],[1,0.5]];portConstraint=eastwest;fontSize=12;whiteSpace=wrap;html=1;" parent="lgrKN7xAIjQ8AgRbihTf-65" vertex="1">
          <mxGeometry y="56" width="160" height="30" as="geometry" />
        </mxCell>
        <mxCell id="lgrKN7xAIjQ8AgRbihTf-68" value="Felhasznalo.felhasznalonev&lt;br&gt;plusz csomag&lt;br&gt;nev" style="text;strokeColor=none;fillColor=none;spacingLeft=4;spacingRight=4;overflow=hidden;rotatable=0;points=[[0,0.5],[1,0.5]];portConstraint=eastwest;fontSize=12;whiteSpace=wrap;html=1;" parent="lgrKN7xAIjQ8AgRbihTf-65" vertex="1">
          <mxGeometry y="86" width="160" height="54" as="geometry" />
        </mxCell>
        <mxCell id="lgrKN7xAIjQ8AgRbihTf-70" value="" style="endArrow=none;html=1;rounded=0;entryX=0;entryY=0.5;entryDx=0;entryDy=0;exitX=1;exitY=0.5;exitDx=0;exitDy=0;" parent="1" target="lgrKN7xAIjQ8AgRbihTf-37" edge="1" source="lgrKN7xAIjQ8AgRbihTf-34">
          <mxGeometry relative="1" as="geometry">
            <mxPoint x="590" y="90" as="sourcePoint" />
            <mxPoint x="690" y="190" as="targetPoint" />
          </mxGeometry>
        </mxCell>
        <mxCell id="lgrKN7xAIjQ8AgRbihTf-74" value="" style="endArrow=none;html=1;rounded=0;exitX=1;exitY=0.5;exitDx=0;exitDy=0;entryX=0;entryY=0.5;entryDx=0;entryDy=0;" parent="1" source="lgrKN7xAIjQ8AgRbihTf-68" target="lgrKN7xAIjQ8AgRbihTf-23" edge="1">
          <mxGeometry relative="1" as="geometry">
            <mxPoint x="480" y="440" as="sourcePoint" />
            <mxPoint x="640" y="440" as="targetPoint" />
          </mxGeometry>
        </mxCell>
        <mxCell id="lgrKN7xAIjQ8AgRbihTf-75" value="" style="endArrow=none;html=1;rounded=0;exitX=0;exitY=0.5;exitDx=0;exitDy=0;entryX=1;entryY=0.5;entryDx=0;entryDy=0;" parent="1" source="lgrKN7xAIjQ8AgRbihTf-66" target="lgrKN7xAIjQ8AgRbihTf-41" edge="1">
          <mxGeometry relative="1" as="geometry">
            <mxPoint x="490" y="460" as="sourcePoint" />
            <mxPoint x="650" y="460" as="targetPoint" />
          </mxGeometry>
        </mxCell>
        <mxCell id="lgrKN7xAIjQ8AgRbihTf-76" value="" style="endArrow=none;html=1;rounded=0;exitX=1;exitY=0.5;exitDx=0;exitDy=0;entryX=0;entryY=0.5;entryDx=0;entryDy=0;" parent="1" source="lgrKN7xAIjQ8AgRbihTf-58" target="lgrKN7xAIjQ8AgRbihTf-42" edge="1">
          <mxGeometry relative="1" as="geometry">
            <mxPoint x="80" y="450" as="sourcePoint" />
            <mxPoint x="240" y="450" as="targetPoint" />
          </mxGeometry>
        </mxCell>
        <mxCell id="lgrKN7xAIjQ8AgRbihTf-78" value="" style="endArrow=none;html=1;rounded=0;exitX=1;exitY=0.5;exitDx=0;exitDy=0;entryX=0;entryY=0.5;entryDx=0;entryDy=0;" parent="1" source="lgrKN7xAIjQ8AgRbihTf-42" target="lgrKN7xAIjQ8AgRbihTf-33" edge="1">
          <mxGeometry relative="1" as="geometry">
            <mxPoint x="80" y="460" as="sourcePoint" />
            <mxPoint x="240" y="460" as="targetPoint" />
          </mxGeometry>
        </mxCell>
      </root>
    </mxGraphModel>
  </diagram>
</mxfile>
